<svg id="Layer_1" data-name="Layer 1" xmlns="http://www.w3.org/2000/svg" viewBox="0 0 583.37 856.74"><title>BAHLOGO</title><text x="-208.31" y="-60.63"/><path d="M262.19,87c0-3,1.7-5.11,4.68-5.11h79.18c55.34,0,86.84,41.29,86.84,76.62,0,25.54-.43,64.71-43.42,77.9v0.85c26.82,9.79,44.7,38.31,44.7,71.52,0,21.71-.43,92.38-88.54,92.38H266.45c-3,0-4.26-2.13-4.26-4.68V87ZM338.39,202a2.91,2.91,0,0,0,3,3c6,0,12.35-3.83,12.35-12.35V156c0-7.66-7.24-11.07-12.35-11.07-1.7,0-3,.85-3,2.55V202Zm0,132.39a2.69,2.69,0,0,0,3,3c6.81,0,12.77-5.11,12.77-12.35v-44.7c0-7.24-6.39-11.49-13.2-11.49-1.7,0-2.55,1.28-2.55,3.41v62.15Z" transform="translate(-208.31 -60.63)"/><path d="M454.17,401.2c-3,0-5.53-3-5.53-6.39V86.19c0-2.13,1.7-4.26,3.83-4.26h72.79c3,0,5.11,1.7,5.11,4.26V395.67c0,2.55-2.13,5.53-5.11,5.53H454.17Z" transform="translate(-208.31 -60.63)"/><path d="M636.24,247.53c0-6.48,12-6,14.6-6,0,0,74.71-.21,82.54,0s2.93,59.08,2.93,62.06c0,41.29-30.12,98.85-95.68,98.85-62.58,0-95.78-44.27-95.78-138.78V213.9c0-79.18,26-132.82,97.48-132.82,16.6,0,88.54,0,88.54,119.19,0,3-1.28,5.53-4.26,5.53l-77.05,3.41c-3,0-6-3-6-7.24V177.72c0-3.83-3.41-4.68-6.81-4.68-3.83,0-6.81,3-6.81,9.79V299.89c0,13.2,4.26,18.73,9.79,18.73,4.68,0,9.37-2.55,9.37-12.77v-6.39c0-1.28-.43-2.55-1.7-2.55H645.3c-0.85,0-8.51,1.39-9.06-2.55V247.53Z" transform="translate(-208.31 -60.63)"/><path d="M353.66,411.65c3,0,5.11,2.55,5.53,5.53l58.32,304.37c0.85,4.68-1.28,9.37-6,9.37h-69a5.51,5.51,0,0,1-5.53-4.26l-8.51-63.85a4.15,4.15,0,0,0-4.26-3.41h-23c-1.7,0-3.41,1.7-3.83,4.26l-8.09,62.58a5.81,5.81,0,0,1-5.53,4.68H213.61c-3.83,0-6-3-5.11-7.24l57-306.92c0.43-2.13,2.55-5.11,5.11-5.11h83ZM316.2,572.14c-0.85-6-1.7-9.79-3-9.79s-2.13,3-3,9.79l-5.53,40.44c-0.43,2.13.43,4.26,2.55,4.26,13.62,0,14.9,0,14.47-3.83Z" transform="translate(-208.31 -60.63)"/><path d="M531.59,514.67c-2.55,0-4.26-1.28-5.11-4.68q-3.83-15.32-12.77-15.32c-4.26,0-6.39,3.41-6.39,7.66,0,13.62,20,28.95,45.55,46.4,27.67,18.73,48.53,49.38,48.53,80.88,0,57-34.06,102.59-89.82,102.59-64.71,0-94.5-46.83-94.5-114.94,0-2.13,1.7-4.26,5.11-4.26l58.75-3c3,0,4.68,1.7,5.11,5.53,1.7,17,8.94,35.33,19.16,35.33,6,0,9.79-3.83,9.79-13.62,0-10.22-23.84-28.95-52.36-51.93s-42.57-54.91-42.57-83.86c0-43.42,32.35-90.67,89.4-90.67s92.38,44.7,92.38,95.35c0,3-1.7,5.53-5.11,5.53Z" transform="translate(-208.31 -60.63)"/><path d="M721.45,514.67c-2.55,0-4.26-1.28-5.11-4.68q-3.83-15.32-12.77-15.32c-4.26,0-6.38,3.41-6.38,7.66,0,13.62,20,28.95,45.55,46.4,27.67,18.73,48.53,49.38,48.53,80.88,0,57-34.06,102.59-89.82,102.59-64.7,0-94.5-46.83-94.5-114.94,0-2.13,1.7-4.26,5.11-4.26l58.75-3c3,0,4.68,1.7,5.11,5.53,1.7,17,8.94,35.33,19.16,35.33,6,0,9.79-3.83,9.79-13.62,0-10.22-23.84-28.95-52.36-51.93s-42.57-54.91-42.57-83.86c0-43.42,32.35-90.67,89.4-90.67s92.38,44.7,92.38,95.35c0,3-1.7,5.53-5.11,5.53Z" transform="translate(-208.31 -60.63)"/><path d="M218,744.85a2.19,2.19,0,0,1,2.32-2.32h39c1.39,0,2.09.7,2.09,1.86v60.84a1.59,1.59,0,0,0,1.63,1.63h4.64a2.06,2.06,0,0,0,2.09-1.63v-60.6a1.9,1.9,0,0,1,1.86-2.09h39.24a2.14,2.14,0,0,1,2.32,2.09v169.5c0,1.16-.7,2.55-1.86,2.55H271.88c-1.16,0-2.09-1.39-2.09-2.55v-60.6a1.62,1.62,0,0,0-1.39-1.86h-5.34a1.65,1.65,0,0,0-1.63,1.86v60.84a2.29,2.29,0,0,1-2.09,2.32H221a3.35,3.35,0,0,1-3-3.48V744.85Z" transform="translate(-208.31 -60.63)"/><path d="M321.1,795.47c0-36,22.52-53.4,48.3-53.4s48.3,17.41,48.3,53.4V864.2c0,35.76-22.75,53.17-48.3,53.17s-48.3-17.18-48.3-53.17V795.47Zm44.58,68c0,3.48,1.16,6,3.72,6s3.72-2.55,3.72-6V796.16c0-3-1.16-6.27-3.72-6.27s-3.72,3-3.72,6.27V863.5Z" transform="translate(-208.31 -60.63)"/><path d="M424.19,795.47c0-36,22.52-53.4,48.3-53.4s48.3,17.41,48.3,53.4V864.2c0,35.76-22.76,53.17-48.3,53.17s-48.3-17.18-48.3-53.17V795.47Zm44.58,68c0,3.48,1.16,6,3.72,6s3.72-2.55,3.72-6V796.16c0-3-1.16-6.27-3.72-6.27s-3.72,3-3.72,6.27V863.5Z" transform="translate(-208.31 -60.63)"/><path d="M531.46,916.67a2.56,2.56,0,0,1-2.79-2.79V746c0-1.86,1.16-3.48,3-3.48h41.56c36.92,0,58.75,23.45,58.75,65.71v43.19c0,37.62-21.13,65.25-57.12,65.25H531.46Zm53.87-121.9a6.66,6.66,0,0,0-2.09-5.34,8.1,8.1,0,0,0-3.95-1.39q-1.39,0-1.39,2.09v77.09c0,1.39.46,1.86,1.39,1.86,1.39,0,6,0,6-6.73V794.77Z" transform="translate(-208.31 -60.63)"/><path d="M642.91,916.67a3.35,3.35,0,0,1-3-3.48V744.85a2.29,2.29,0,0,1,2.09-2.32h39.71c1.63,0,2.79.93,2.79,2.32V913.66a3,3,0,0,1-2.79,3H642.91Z" transform="translate(-208.31 -60.63)"/><path d="M693.76,745.55a3.24,3.24,0,0,1,3-3h82.43a2.39,2.39,0,0,1,2.32,2.55v41.8A2.39,2.39,0,0,1,779,789.2H740.2a1.59,1.59,0,0,0-1.63,1.63v13a1.74,1.74,0,0,0,1.63,1.63h18.34a1.59,1.59,0,0,1,1.63,1.63v42.26a2,2,0,0,1-1.86,2.09H739.5a1.66,1.66,0,0,0-1.63,1.86V867a1.55,1.55,0,0,0,1.39,1.63h40.17a2.39,2.39,0,0,1,2.55,2.32v43.19a2.58,2.58,0,0,1-2.55,2.55H696.31a2.85,2.85,0,0,1-2.55-3V745.55Z" transform="translate(-208.31 -60.63)"/></svg>